<svg xmlns="http://www.w3.org/2000/svg" xmlns:xlink="http://www.w3.org/1999/xlink" width="332.188" height="110.647" viewBox="0 0 332.188 110.647">
  <defs>
    <radialGradient id="radial-gradient" cx="0.5" cy="0.5" r="0.5" gradientTransform="translate(0)" gradientUnits="objectBoundingBox">
      <stop offset="0" stop-color="#007cb4"/>
      <stop offset="1" stop-color="#052b76"/>
    </radialGradient>
  </defs>
  <g id="Group_2" data-name="Group 2" transform="translate(-27.515 -539.266)">
    <path id="Path_2" data-name="Path 2" d="M137.878,598.482a20.8,20.8,0,0,0-4.021-2.369,19.042,19.042,0,0,0-6.7-2.008,13.571,13.571,0,0,0-5.26.763c-3.546,1.187-6.612,3.531-9.688,5.6-3.572,2.4-7.282,4.471-11.642,4.914a13.909,13.909,0,0,1-5.722-.6c-.008-.008-.014-.008-.023-.02a19.935,19.935,0,0,1-2.184-2.1,48.865,48.865,0,0,1-4.264-5.609,1.976,1.976,0,0,0-.5-.437,26.928,26.928,0,0,0,6.614,1.827,36.682,36.682,0,0,0,9.766,0,15.612,15.612,0,0,0,6.606-2.648c3.533-2.41,5.8-5.908,7.824-9.612,1.792-3.277,3.445-6.718,6.025-9.464a13.289,13.289,0,0,1,3.663-2.754,13.485,13.485,0,0,1,2.145-.816,10.981,10.981,0,0,1,1.095-.244c-.119.02.662-.1.494-.078,0,0,.867-.055.4-.033.209-.014,2.535-.191,1.232-.441a20.4,20.4,0,0,0-4.653-.23,18.9,18.9,0,0,0-6.864,1.323,13.945,13.945,0,0,0-4.319,3.117c-2.6,2.705-4.245,6.21-6.021,9.474-2.067,3.792-4.411,7.342-8.07,9.758a14.092,14.092,0,0,1-5.336,2.127.112.112,0,0,0-.049-.012,19.2,19.2,0,0,1-2.9-.843,48.343,48.343,0,0,1-6.353-3,2.116,2.116,0,0,0-.636-.16,26.838,26.838,0,0,0,6.7-1.456,36.551,36.551,0,0,0,8.666-4.526,15.6,15.6,0,0,0,4.639-5.412c2.03-3.79,2.44-7.945,2.535-12.161.088-3.739-.025-7.561,1-11.2a13.3,13.3,0,0,1,1.991-4.145,12.84,12.84,0,0,1,1.526-1.717,10.081,10.081,0,0,1,.857-.726c-.1.072.545-.394.4-.295,0,0,.747-.451.342-.219.182-.107,2.161-1.345.89-.96a20.186,20.186,0,0,0-4.237,1.956,19.074,19.074,0,0,0-5.48,4.362,13.809,13.809,0,0,0-2.4,4.768c-1.068,3.6-.923,7.473-1,11.2-.09,4.321-.537,8.562-2.678,12.411a14.116,14.116,0,0,1-3.763,4.362c-.018,0-.021.008-.043.012a19.665,19.665,0,0,1-2.961.591,47.526,47.526,0,0,1-7.009.3,1.9,1.9,0,0,0-.642.156,27.1,27.1,0,0,0,5.281-4.4,36.966,36.966,0,0,0,5.607-8.047,15.771,15.771,0,0,0,1.632-6.954c.062-4.3-1.483-8.176-3.333-11.97-1.639-3.357-3.494-6.692-4.247-10.393a13.153,13.153,0,0,1-.137-4.6,12.607,12.607,0,0,1,.564-2.233,11.191,11.191,0,0,1,.425-1.04c-.047.105.3-.6.222-.455,0,0,.453-.744.2-.351.111-.174,1.3-2.19.342-1.261a20.8,20.8,0,0,0-2.853,3.7,19.092,19.092,0,0,0-2.863,6.417,13.851,13.851,0,0,0,.061,5.34c.707,3.7,2.611,7.055,4.255,10.395,1.9,3.882,3.451,7.848,3.312,12.253a13.983,13.983,0,0,1-1.431,5.709,20.415,20.415,0,0,1-2.289,1.846,46.652,46.652,0,0,1-6.085,3.513,1.872,1.872,0,0,0-.486.427,27.149,27.149,0,0,0,2.658-6.343,37.07,37.07,0,0,0,1.28-9.745,15.8,15.8,0,0,0-1.741-6.931c-1.917-3.837-5.067-6.558-8.449-9.062-3-2.219-6.167-4.313-8.539-7.247a13.357,13.357,0,0,1-2.235-4.017,12.882,12.882,0,0,1-.523-2.244c-.053-.373-.082-.747-.1-1.12.006.115-.008-.681-.012-.5,0,0,.062-.876.02-.41.02-.2.148-2.549-.269-1.282a20.41,20.41,0,0,0-.839,4.608,19.225,19.225,0,0,0,.406,7.022,13.676,13.676,0,0,0,2.508,4.711c2.319,2.949,5.555,5.051,8.537,7.252,3.466,2.551,6.667,5.355,8.566,9.325a14.115,14.115,0,0,1,1.392,5.615l-.01.035a21.708,21.708,0,0,1-1.214,2.785,48.23,48.23,0,0,1-3.786,5.931,2.073,2.073,0,0,0-.244.621,27.227,27.227,0,0,0-.548-6.87,36.941,36.941,0,0,0-3.333-9.235,15.563,15.563,0,0,0-4.721-5.342c-3.468-2.518-7.508-3.472-11.657-4.118-3.673-.572-7.452-.966-10.9-2.469a12.429,12.429,0,0,1-5.316-4.268c-.219-.308-.416-.627-.605-.954.062.105-.314-.588-.24-.443,0,0-.344-.794-.166-.363-.082-.2-1.04-2.33-.831-1.011a20.426,20.426,0,0,0,1.376,4.475,19.012,19.012,0,0,0,3.576,6.037,13.787,13.787,0,0,0,4.387,3.023c3.412,1.536,7.249,1.9,10.9,2.463,4.251.652,8.371,1.661,11.882,4.3a14.179,14.179,0,0,1,3.806,4.327l.008.047a20.91,20.91,0,0,1,.2,3.029,48.812,48.812,0,0,1-.632,7.03,2.09,2.09,0,0,0,.072.654,27.368,27.368,0,0,0-3.644-5.839,36.568,36.568,0,0,0-7.2-6.646,15.54,15.54,0,0,0-6.64-2.543C59,572.769,54.976,573.8,51,575.148c-3.527,1.2-7.053,2.608-10.8,2.875a12.93,12.93,0,0,1-4.549-.467,12.274,12.274,0,0,1-2.131-.857,10.843,10.843,0,0,1-.974-.564c.1.07-.55-.377-.414-.279,0,0-.673-.546-.316-.244-.16-.138-1.991-1.587-1.2-.513a20.108,20.108,0,0,0,3.273,3.333,18.957,18.957,0,0,0,5.943,3.7,13.836,13.836,0,0,0,5.279.644c3.734-.224,7.3-1.688,10.8-2.879,4.073-1.39,8.185-2.412,12.508-1.706a13.933,13.933,0,0,1,5.375,2.086l.018.02a20.6,20.6,0,0,1,1.565,2.6,48.452,48.452,0,0,1,2.666,6.532,1.875,1.875,0,0,0,.363.546,27.027,27.027,0,0,0-5.912-3.488,36.728,36.728,0,0,0-9.429-2.559,15.579,15.579,0,0,0-7.061.829c-4.036,1.413-7.133,4.2-10.041,7.233-2.582,2.7-5.063,5.59-8.265,7.571a13.017,13.017,0,0,1-4.249,1.692,12.283,12.283,0,0,1-2.283.234c-.373,0-.746-.016-1.118-.049.117.006-.666-.08-.5-.055,0,0-.847-.174-.388-.072-.207-.043-2.5-.48-1.3.1a19.7,19.7,0,0,0,4.434,1.44,18.907,18.907,0,0,0,6.968.519,13.856,13.856,0,0,0,4.973-1.88c3.212-1.93,5.707-4.881,8.267-7.569,2.974-3.123,6.154-5.943,10.317-7.321a14.015,14.015,0,0,1,5.7-.654l.041.023a19.28,19.28,0,0,1,2.586,1.573A48.285,48.285,0,0,1,76.5,592.1a2.09,2.09,0,0,0,.574.314,26.874,26.874,0,0,0-6.845-.351,36.4,36.4,0,0,0-9.538,2.112,15.654,15.654,0,0,0-5.882,4.013c-2.939,3.121-4.4,7.028-5.592,11.08-1.048,3.591-1.924,7.309-3.857,10.551a13.087,13.087,0,0,1-2.99,3.472,12.091,12.091,0,0,1-1.92,1.265,10.806,10.806,0,0,1-1.017.482c.111-.055-.625.238-.468.183,0,0-.831.236-.379.121-.2.051-2.438.732-1.109.691a20.139,20.139,0,0,0,4.592-.785,18.873,18.873,0,0,0,6.419-2.771,13.785,13.785,0,0,0,3.554-3.979c1.961-3.2,2.822-6.977,3.857-10.547,1.2-4.159,2.734-8.137,5.8-11.285a13.919,13.919,0,0,1,4.78-3.234h.025a19.8,19.8,0,0,1,3.015.2,48.247,48.247,0,0,1,6.847,1.55,1.913,1.913,0,0,0,.656.016,26.881,26.881,0,0,0-6.232,2.867,36.857,36.857,0,0,0-7.5,6.3,15.679,15.679,0,0,0-3.373,6.292c-1.171,4.132-.681,8.281.125,12.423.718,3.675,1.643,7.375,1.417,11.152a13.211,13.211,0,0,1-1.056,4.469,12.868,12.868,0,0,1-1.122,2.012,10.442,10.442,0,0,1-.687.894c.08-.084-.445.507-.326.383.006-.008-.632.6-.285.283-.154.141-1.825,1.78-.666,1.13a20.537,20.537,0,0,0,3.72-2.828,19.017,19.017,0,0,0,4.421-5.441,14.028,14.028,0,0,0,1.323-5.176c.269-3.755-.7-7.506-1.419-11.156-.833-4.241-1.308-8.482-.035-12.7a14.252,14.252,0,0,1,2.744-5.076l.033-.016a19.27,19.27,0,0,1,2.768-1.228,47.538,47.538,0,0,1,6.786-1.8,2,2,0,0,0,.584-.289,27,27,0,0,0-4.212,5.432,37.007,37.007,0,0,0-3.751,9.066,15.791,15.791,0,0,0-.111,7.155c.857,4.208,3.195,7.66,5.812,10.961,2.321,2.926,4.842,5.777,6.374,9.226a13.126,13.126,0,0,1,1.112,4.467,12.544,12.544,0,0,1-.07,2.3c-.047.382-.111.744-.193,1.114.021-.119-.168.652-.121.486,0,0-.285.831-.125.388-.068.2-.8,2.416-.066,1.31a20.313,20.313,0,0,0,2-4.231,19.111,19.111,0,0,0,1.425-6.88,13.8,13.8,0,0,0-1.2-5.211c-1.477-3.457-4.061-6.331-6.372-9.234-2.689-3.374-5.049-6.917-5.863-11.251a14.179,14.179,0,0,1,.107-5.771l.023-.041a20.2,20.2,0,0,1,1.891-2.369,48.882,48.882,0,0,1,5.193-4.749,1.792,1.792,0,0,0,.383-.527,27.62,27.62,0,0,0-1.237,6.776,37.137,37.137,0,0,0,.828,9.79,15.666,15.666,0,0,0,3.183,6.39c2.7,3.339,6.353,5.316,10.19,7.028,3.4,1.521,6.948,2.885,9.889,5.236a12.46,12.46,0,0,1,4.03,5.512,11.026,11.026,0,0,1,.334,1.077c-.029-.113.154.658.125.494,0,0,.121.863.064.39.025.213.4,2.526.537,1.194a20.455,20.455,0,0,0-.166-4.682,19.129,19.129,0,0,0-1.9-6.763,13.81,13.81,0,0,0-3.456-4.061c-2.9-2.377-6.507-3.728-9.889-5.231-3.933-1.75-7.657-3.794-10.358-7.258a14.005,14.005,0,0,1-2.561-5.18l0-.033a20.435,20.435,0,0,1,.593-2.988,47.483,47.483,0,0,1,2.428-6.618,2,2,0,0,0,.1-.656,27.494,27.494,0,0,0,2.01,6.595,36.681,36.681,0,0,0,5.227,8.295,15.478,15.478,0,0,0,5.756,4.188c3.921,1.722,8.076,1.772,12.264,1.511,3.712-.228,7.485-.666,11.172.051a12.876,12.876,0,0,1,4.274,1.643,11.968,11.968,0,0,1,1.835,1.38,9.534,9.534,0,0,1,.79.8,4.9,4.9,0,0,0,.33.375s.511.71.242.322c.119.179,1.515,2.059,1.03.814a20.57,20.57,0,0,0-2.3-4.079,19.09,19.09,0,0,0-4.788-5.119,13.732,13.732,0,0,0-4.928-2c-3.663-.765-7.481-.283-11.177-.045-4.29.275-8.527.181-12.516-1.635a13.9,13.9,0,0,1-4.645-3.394l-.014-.045a20.213,20.213,0,0,1-.847-2.916,48.238,48.238,0,0,1-.884-7,4.624,4.624,0,0,0-.634-1.45c-.078-.15-.174-.293-.256-.441a28.75,28.75,0,0,0,5.931,5.8,36.564,36.564,0,0,0,8.664,4.532,15.412,15.412,0,0,0,7.069.718c4.243-.5,7.861-2.549,11.357-4.887,3.1-2.083,6.138-4.37,9.688-5.6a12.818,12.818,0,0,1,4.516-.742,12.6,12.6,0,0,1,2.276.269c.367.078.726.178,1.083.291-.115-.033.628.223.47.164,0-.008.792.355.371.152C136.777,598.385,138.918,599.312,137.878,598.482Z" transform="translate(0)" fill="url(#radial-gradient)"/>
    <g id="Group_2-2" data-name="Group 2" transform="translate(157.35 606.806)">
      <g id="Group_1" data-name="Group 1">
        <path id="Path_3" data-name="Path 3" d="M112.369,575.65l-1.53,2.25a9.347,9.347,0,0,0-4-.937,8.127,8.127,0,0,0-6.136,2.529,8.966,8.966,0,0,0-2.42,6.464,8.233,8.233,0,0,0,1.78,5.449,5.671,5.671,0,0,0,4.559,2.139,4.985,4.985,0,0,0,2.061-.406l1.343-7.026h3.778l-1.686,9.181a14.833,14.833,0,0,1-6,1.187,9.691,9.691,0,0,1-10.086-10.243,11.7,11.7,0,0,1,4.309-9.337,12.348,12.348,0,0,1,8.244-3.029A9.711,9.711,0,0,1,112.369,575.65Z" transform="translate(-94.039 -573.872)" fill="#1a1818"/>
        <path id="Path_4" data-name="Path 4" d="M120.98,579.622q0,4.248-4.715,6.5l3.466,9.243-4.06.906L112.7,586.93h-2.436l-1.655,8.993h-3.935l4.06-21.859h4.871a20.065,20.065,0,0,1,2.746.125,5.564,5.564,0,0,1,2.531.968A5.24,5.24,0,0,1,120.98,579.622Zm-3.872.324a3.108,3.108,0,0,0-1.218-2.789,4.784,4.784,0,0,0-2.561-.533h-1.157l-1.435,7.867h.937a6.021,6.021,0,0,0,3.81-1A4.273,4.273,0,0,0,117.107,579.946Z" transform="translate(-83.913 -573.689)" fill="#1a1818"/>
        <path id="Path_5" data-name="Path 5" d="M134.353,583.115a13.943,13.943,0,0,1-3.56,9.712,10.313,10.313,0,0,1-7.9,3.654,8.022,8.022,0,0,1-6.558-2.842,10.134,10.134,0,0,1-2.248-6.685,13.868,13.868,0,0,1,1.247-5.634,13.455,13.455,0,0,1,3.312-4.668,10.608,10.608,0,0,1,7.338-2.779,7.791,7.791,0,0,1,6.042,2.561A9.557,9.557,0,0,1,134.353,583.115Zm-4.184-.031a7.26,7.26,0,0,0-1.233-4.528,4.187,4.187,0,0,0-3.515-1.592,6.146,6.146,0,0,0-5.1,2.748,11.132,11.132,0,0,0-2.045,6.837,8.34,8.34,0,0,0,1.327,5.045,4.365,4.365,0,0,0,3.732,1.8,5.746,5.746,0,0,0,5.09-3.185A13.674,13.674,0,0,0,130.169,583.084Z" transform="translate(-74.959 -573.872)" fill="#1a1818"/>
        <path id="Path_6" data-name="Path 6" d="M144.744,574.064l-2.28,12.147a25.724,25.724,0,0,1-1.155,4.512,9.094,9.094,0,0,1-1.718,2.733,8.642,8.642,0,0,1-6.745,2.842,7.406,7.406,0,0,1-4.965-1.546,5.269,5.269,0,0,1-1.811-4.231,32.325,32.325,0,0,1,.656-5.121l2.092-11.335h3.935L130.6,585.712a26.093,26.093,0,0,0-.531,4.091,3.392,3.392,0,0,0,.906,2.483,3.262,3.262,0,0,0,2.436.921,4.487,4.487,0,0,0,4.309-2.779,17.235,17.235,0,0,0,1.312-4.466l2.186-11.9Z" transform="translate(-63.555 -573.689)" fill="#1a1818"/>
        <path id="Path_7" data-name="Path 7" d="M152.783,579.935a6.521,6.521,0,0,1-2.467,5.34,9.85,9.85,0,0,1-6.433,2.217,5.875,5.875,0,0,1-.656-.031l.468-2.529a4.974,4.974,0,0,0,3.638-1.251,4.526,4.526,0,0,0,1.358-3.464,3.181,3.181,0,0,0-1.436-3,5.342,5.342,0,0,0-2.529-.437h-.906l-3.56,19.142h-3.935l4.06-21.859h4.965q3.686,0,5.4,1.374A5.438,5.438,0,0,1,152.783,579.935Z" transform="translate(-53.795 -573.689)" fill="#1a1818"/>
      </g>
    </g>
    <g id="Group_3" data-name="Group 3" transform="translate(155.726 567.099)">
      <path id="Path_8" data-name="Path 8" d="M124.534,580.648H116.54L118.962,567q.266-1.508,1.064-5.381c-.712,1.595-1.608,3.394-2.684,5.381l-7.325,13.652h-3.579L103.83,567c-.275-1.474-.529-3.275-.769-5.422-.217,1.887-.476,3.691-.783,5.422l-2.42,13.652H93.207L98,553.572H108.02l2.97,16.591,8.65-16.591h9.69Z" transform="translate(-93.207 -553.484)" fill="#1a1818"/>
      <path id="Path_9" data-name="Path 9" d="M139.181,580.648h-8.97l-1.062-6.472h-8.724l-3.886,6.472h-6.591l16.26-27.076h7.118Zm-10.609-10.711-1.3-8.515-4.684,8.515Z" transform="translate(-77.274 -553.484)" fill="#1a1818"/>
      <path id="Path_10" data-name="Path 10" d="M150.39,580.648h-5.344L135.02,565.325l-2.715,15.323h-6.649l4.8-27.076h5.863l9.552,15.047,2.67-15.047h6.648Z" transform="translate(-62.325 -553.484)" fill="#1a1818"/>
      <path id="Path_11" data-name="Path 11" d="M168.269,580.648H159.3l-1.064-6.472H149.51l-3.882,6.472h-6.6l16.262-27.076h7.12Zm-10.611-10.711-1.3-8.515-4.686,8.515Z" transform="translate(-49.596 -553.484)" fill="#1a1818"/>
      <path id="Path_12" data-name="Path 12" d="M175.358,572.925a8.251,8.251,0,0,1-3.989,5.627,15.07,15.07,0,0,1-8.228,2.139,14.3,14.3,0,0,1-8.445-2.438l3.345-4.354a6.8,6.8,0,0,0,4.772,1.883,5.072,5.072,0,0,0,2.662-.713,2.691,2.691,0,0,0,1.37-1.838,2.949,2.949,0,0,0-.619-2.215,30.263,30.263,0,0,0-2.609-2.775c-.853-.8-1.94-1.868-3.261-3.189a5.606,5.606,0,0,1-1.273-4.657,7.222,7.222,0,0,1,3.622-4.99,14.212,14.212,0,0,1,7.537-1.878,14.719,14.719,0,0,1,7.141,1.761l-2.992,4.134a8.623,8.623,0,0,0-3.663-.99c-1.77,0-2.764.552-2.955,1.655a1.7,1.7,0,0,0,.316,1.278,15.164,15.164,0,0,0,2.022,2.1,39.887,39.887,0,0,1,3.558,3.747A6.754,6.754,0,0,1,175.358,572.925Z" transform="translate(-34.689 -553.527)" fill="#1a1818"/>
      <path id="Path_13" data-name="Path 13" d="M182.431,580.648H165.342l4.8-27.076h17.126l-.909,5.121h-8.726l-.917,5.18h8.708l-.917,5.182H175.8l-1.144,6.474h8.689Z" transform="translate(-24.556 -553.484)" fill="#1a1818"/>
      <path id="Path_14" data-name="Path 14" d="M191.877,580.648H174.788l4.8-27.076h17.128l-.908,5.121H187.08l-.921,5.18h8.708l-.917,5.182h-8.71l-1.144,6.474h8.689Z" transform="translate(-15.567 -553.484)" fill="#1a1818"/>
      <path id="Path_15" data-name="Path 15" d="M208.66,580.607h-9.212l-2.73-10.553h-2.182l-1.881,10.594H184.26l4.8-27.076H200a42.731,42.731,0,0,1,4.44.154,8.485,8.485,0,0,1,3.892,1.39q2.781,2.055,2.043,6.193-.867,4.912-6.521,7.471Zm-6.31-18.783c.25-1.4-.023-2.364-.82-2.906a6.613,6.613,0,0,0-3.339-.583h-1.579l-1.3,7.36h1.5a6.387,6.387,0,0,0,3.94-.99A4.434,4.434,0,0,0,202.35,561.824Z" transform="translate(-6.552 -553.484)" fill="#1a1818"/>
    </g>
  </g>
</svg>
